<svg xmlns="http://www.w3.org/2000/svg" viewBox="0 0 24 24" aria-hidden="true">
  <title>Instagram</title>
  <linearGradient id="g" x1="0" x2="1" y1="0" y2="1">
    <stop offset="0%" stop-color="#f58529"/>
    <stop offset="50%" stop-color="#dd2a7b"/>
    <stop offset="100%" stop-color="#8134af"/>
  </linearGradient>
  <path fill="url(#g)" d="M7 2h10a5 5 0 0 1 5 5v10a5 5 0 0 1-5 5H7a5 5 0 0 1-5-5V7a5 5 0 0 1 5-5zm5 6.2A4.8 4.8 0 1 0 16.8 13 4.8 4.8 0 0 0 12 8.2zm6.4-2.8a1.1 1.1 0 1 1-1.1-1.1 1.1 1.1 0 0 1 1.1 1.1z"/>
  <circle cx="12" cy="12" r="3.2" fill="white" opacity="0.9"/>
</svg>