<svg xmlns="http://www.w3.org/2000/svg" viewBox="0 0 24 24" fill="#1DA1F2" aria-hidden="true">
  <title>Twitter</title>
  <path d="M22.46 6c-.77.35-1.6.58-2.46.69a4.3 4.3 0 0 0 1.88-2.37 8.59 8.59 0 0 1-2.72 1.04 4.28 4.28 0 0 0-7.3 3.9A12.13 12.13 0 0 1 3.15 4.6a4.28 4.28 0 0 0 1.32 5.72 4.25 4.25 0 0 1-1.94-.54v.05a4.28 4.28 0 0 0 3.43 4.19 4.3 4.3 0 0 1-1.93.07 4.28 4.28 0 0 0 4 2.97A8.58 8.58 0 0 1 2 19.54a12.1 12.1 0 0 0 6.56 1.92c7.88 0 12.2-6.53 12.2-12.19 0-.19-.01-.37-.02-.56A8.72 8.72 0 0 0 24 5.1a8.5 8.5 0 0 1-2.54.7z"/>
</svg>